<svg xmlns="http://www.w3.org/2000/svg" xml:space="preserve" fill-rule="evenodd" stroke-linejoin="round" stroke-miterlimit="2" clip-rule="evenodd" viewBox="0 0 587 160"><path d="M77.32.168C72.35.46 63.146 1.958 61.129 2.8c-2.01.84-1.973 4.428.06 5.683 1.003.62 2.321.626 5.265.02 3.951-.813 7.445-1.24 12.735-1.56 4.976-.3 5.152-.328 5.987-.965 1.643-1.253 1.772-3.677.275-5.173l-.805-.806-2.995.045c-1.648.025-3.596.08-4.33.124m20.677 2.64c-1.144.586-1.76 1.725-1.76 3.25 0 1.149.09 1.363.91 2.182.646.645 1.329 1.023 2.364 1.31 5.042 1.392 9.592 3.032 13.763 4.959 3.01 1.39 4.327 1.443 5.655.223 1.423-1.308 1.565-3.607.307-4.96-1.78-1.91-15.073-6.996-18.998-7.267-1.041-.072-1.679.014-2.241.303m-50.02 4.666c-5.202 2.397-11.784 6.395-15.825 9.611-1.39 1.107-1.394 1.113-1.394 2.43 0 1.194.087 1.411.911 2.278.953 1.002 2.187 1.433 3.301 1.154.318-.08 2.256-1.276 4.307-2.657 3.952-2.662 7.727-4.846 11.141-6.446 3.246-1.52 4.107-2.426 4.105-4.314-.001-1.6-1.647-3.478-3.03-3.46-.267.004-1.85.636-3.517 1.404m36.842 10.69c-1.624.526-2.647 1.844-2.647 3.407 0 1.66 1.493 3.29 3.215 3.51 5.178.665 7.368 1.049 10.608 1.861 4.23 1.06 5.612 1.161 6.635.486 2.43-1.601 2.074-5.004-.657-6.287-3.44-1.617-15.106-3.642-17.154-2.977m-16.72.62c-4.264.87-11.893 3.556-14.127 4.973-.63.4-1.363 1.083-1.629 1.52-1.441 2.363.563 5.524 3.287 5.182.54-.067 1.892-.512 3.003-.988 2.286-.978 7.65-2.767 10.588-3.53 1.08-.281 2.31-.72 2.73-.977 1.622-.986 2.167-2.941 1.281-4.597-.856-1.6-2.524-2.115-5.133-1.582m60.944 1.447c-1.061.48-1.761 1.693-1.762 3.055-.001 1.287.274 1.751 2.3 3.874.828.867 2.36 2.559 3.406 3.759 2.31 2.654 2.963 3.113 4.389 3.091 3.032-.045 4.16-3.107 2.193-5.949-1.318-1.903-5.521-6.505-6.664-7.296-1.198-.829-2.738-1.042-3.862-.534m-104.59 4.27c-2.106.47-10.614 11.23-14.03 17.742-.851 1.622-.95 1.969-.755 2.65.668 2.327 3.586 3.332 5.44 1.874.357-.28 1.716-2.106 3.02-4.056 2.663-3.98 5.35-7.509 7.782-10.221.9-1.004 1.922-2.247 2.272-2.762 1.817-2.677-.514-5.945-3.729-5.227m85.114 2.235c-1.805.91-2.467 3.058-1.456 4.717.26.427 1.761 1.727 3.334 2.89 1.573 1.161 4.334 3.553 6.134 5.314 1.8 1.762 3.513 3.327 3.804 3.477.291.151.924.275 1.406.275 2.678 0 4.094-2.773 2.762-5.406-1.19-2.35-9.605-9.8-12.7-11.243-1.511-.704-1.93-.707-3.284-.024m-65.528 3.191c-1.251.45-1.776.822-4.618 3.265-2.923 2.511-6.512 6.25-7.81 8.133-1.606 2.333-1.356 4.492.661 5.722a3.42 3.42 0 0 0 2.906.267c.314-.119 1.22-.91 2.012-1.758 2.97-3.174 6.369-6.472 8.445-8.193 2.448-2.028 3.068-2.89 3.068-4.261 0-2.343-2.413-3.985-4.664-3.175m36.89 6.46c-1.417.23-1.935.51-2.758 1.488-.578.687-.646.94-.552 2.068.115 1.39.688 2.234 1.967 2.9.398.206 1.934.452 3.638.58 1.622.123 3.818.4 4.879.615 2.572.523 4.066.37 4.988-.514 2.047-1.96 1.296-4.838-1.539-5.899-2.287-.856-8.51-1.58-10.624-1.238m-12.7 1.37c-1.622.373-5.945 2-8.097 3.044-3.871 1.88-5.296 3.577-4.77 5.676.245.972 1.606 2.202 2.654 2.399 1 .188 1.075.163 5.467-1.832 1.525-.693 3.903-1.63 5.284-2.082 3.199-1.048 3.86-1.399 4.443-2.354.938-1.539.46-3.57-1.064-4.511-.796-.493-2.585-.648-3.918-.34m74.938 3.348c-.534.189-1.211.621-1.505.96-.968 1.117-.946 2.005.135 5.525 1.789 5.82 2.453 8.828 3.197 14.478.32 2.428.668 3.189 1.772 3.87 1.659 1.026 3.705.344 4.629-1.543.437-.893.448-1.147.177-3.877-.53-5.349-2.745-14.576-4.167-17.363-.493-.967-1.768-2.172-2.297-2.172-.18 0-.47-.05-.648-.11-.178-.062-.76.043-1.293.232m-43.546.833c-1.755.54-2.805 2.033-2.584 3.676.156 1.165.707 1.887 2.322 3.046 2.387 1.711 3.051 2.272 5.187 4.376 5.462 5.382 8.472 12.148 9.04 20.323.188 2.72.515 3.566 1.643 4.254 1.513.923 3.357.316 4.385-1.445 1.01-1.729.672-7.506-.722-12.331-2.24-7.749-7.01-14.635-13.558-19.567-2.725-2.052-4.4-2.736-5.713-2.332m27.954 3.912c-1.385.293-2.476 1.673-2.476 3.132 0 .41.532 2.135 1.182 3.832 1.47 3.834 1.828 4.945 2.473 7.692.674 2.865.969 3.525 1.94 4.342.719.605.956.67 2.11.573 1.059-.087 1.445-.25 2.068-.874.696-.696.775-.93.854-2.525.096-1.952-.525-4.801-1.984-9.092-2.006-5.898-3.523-7.64-6.167-7.08m-78.685 3.124c-1.09.348-2.576 1.678-4.582 4.099-3.604 4.352-6.272 8.934-6.272 10.773 0 2.308 1.995 3.902 4.155 3.32 1.167-.314 1.844-1.057 3.461-3.803 1.521-2.582 2.86-4.372 5.656-7.56 2.161-2.464 2.5-3.263 2.011-4.742-.539-1.632-2.685-2.644-4.429-2.087m-22.64 1.444c-1.253.57-1.735 1.254-3.474 4.935-2.113 4.474-3.898 9.924-3.898 11.902 0 2.102 1.425 3.558 3.483 3.558.95 0 1.273-.136 2.096-.88.835-.754 1.08-1.227 1.731-3.334.93-3.01 2.499-7.082 3.823-9.917 1.246-2.67 1.337-4.096.337-5.285-.665-.79-1.884-1.445-2.671-1.435-.238.003-.88.208-1.427.456m50.104 2.359c-4.464.64-7.223 1.48-10.629 3.24-8.358 4.316-14.168 12.312-16.068 22.115-.58 2.99-.623 8.186-.095 11.262 2.435 14.178 13.53 25.18 28.377 28.137 1.56.31 3.344.436 6.313.442l4.14.009 1.033-.683c1.878-1.242 2.176-3.236.73-4.882-.872-.994-2.216-1.346-5.143-1.348-13.276-.01-24.83-8.644-28.093-20.993-.494-1.869-.571-2.715-.563-6.167.011-4.454.352-6.234 1.888-9.878 4.025-9.543 13.96-15.473 23.688-14.138 4.436.61 7.912 2.301 10.933 5.322 2.09 2.09 3.538 4.406 4.498 7.199.862 2.509 1.086 7.266.467 9.918-1.313 5.621-5.442 10.023-10.683 11.388-2.983.777-6.887.35-9.422-1.028-4.67-2.541-6.79-7.502-5.21-12.192.987-2.934 4.068-5.326 6.854-5.32 3.376.006 5.758 3.063 4.278 5.49-.296.486-.803.872-1.394 1.062-1.316.425-1.534.663-1.534 1.679 0 2.303 3.081 3.103 5.658 1.47 3.204-2.033 4.255-6.568 2.422-10.45-2.61-5.522-9.453-7.381-15.84-4.303-2.354 1.134-5.007 3.904-6.26 6.537-.531 1.116-1.11 2.63-1.284 3.363-.452 1.903-.39 5.85.12 7.76 2.772 10.35 14.543 15.994 25.234 12.1 4.919-1.79 9.298-5.724 11.717-10.523 3.867-7.673 3.461-17.136-1.058-24.642-1.4-2.325-4.651-5.874-6.738-7.354-3.348-2.375-7.49-3.964-11.667-4.476-2.057-.252-5.322-.309-6.67-.116m-70.579 3.22c-1.189.376-1.704.884-2.176 2.143C2.306 61.583.55 70.355.278 74.702c-.118 1.894-.07 2.455.265 3.103.86 1.661 3.272 2.27 4.95 1.247 1.103-.673 1.636-2.044 1.977-5.086A88.294 88.294 0 0 1 9.413 63.1c.855-3.489.9-4.493.257-5.55-.813-1.333-2.484-1.998-3.899-1.55m30.546 15.124c-.45.303-1.059.908-1.353 1.344-1.038 1.54-1.827 6.31-1.872 11.321-.028 3.094.018 3.486.518 4.421.301.564.869 1.192 1.26 1.395 1.009.52 2.587.465 3.543-.126 1.163-.72 1.503-1.935 1.658-5.932.073-1.868.364-4.756.647-6.418.571-3.357.51-4.402-.31-5.28-1.272-1.362-2.756-1.625-4.091-.725m94.613.566c-1.084.912-1.202 1.232-1.704 4.649-.249 1.697-.625 3.828-.836 4.737-.211.909-.384 2.204-.384 2.878 0 1.108.094 1.32.972 2.198.94.94 1.013.967 2.305.86 1.583-.13 2.273-.67 2.99-2.337 1.1-2.562 2.056-9.852 1.51-11.51-.679-2.054-3.24-2.833-4.853-1.475m15.339 3.223c-1.224.768-1.472 1.38-2.022 4.996a156.506 156.506 0 0 1-1.096 6.243c-.319 1.567-.518 3.04-.443 3.274.444 1.379.714 1.805 1.422 2.243.966.597 2.587.636 3.52.084.375-.22.898-.794 1.162-1.273 1.172-2.122 2.75-11.681 2.242-13.572-.555-2.059-3.037-3.094-4.785-1.995m-127.03.5c-.774.325-1.6 1.22-2 2.166-.513 1.209-.697 8.04-.326 12.068.423 4.6 1.4 6.228 3.74 6.228 1.356 0 2.577-.694 3.145-1.787.394-.757.42-1.26.264-5.085a274.476 274.476 0 0 1-.194-7.881c-.02-3.434-.055-3.684-.604-4.454-.896-1.256-2.688-1.814-4.026-1.254m141.956 2.56c-.913.496-1.594 2.121-1.777 4.239-.255 2.957-1.27 8.844-2.162 12.534-.975 4.037-.917 4.83.443 6.079.752.69 1.024.788 2.2.788 1.177 0 1.443-.096 2.185-.788.711-.663.903-1.077 1.206-2.607.781-3.939 1.127-7.657 1.262-13.59.129-5.635.104-6.232-.273-6.61-.512-.511-2.18-.536-3.084-.045M2.001 85.356A3.824 3.824 0 0 0 .46 86.845c-.505.897-.54 1.174-.388 3.087.382 4.826 1.333 10.572 2.454 14.83.71 2.699.99 3.19 2.12 3.727 2.39 1.134 5.014-.412 5.014-2.954 0-.546-.324-2.443-.72-4.216-.81-3.635-1.305-6.787-1.7-10.85-.15-1.527-.443-3.138-.653-3.581-.826-1.74-2.846-2.416-4.585-1.532m124.144 4.765c-.87.428-1.5 1.296-2.977 4.095-1.448 2.747-3.32 5.455-5.616 8.125-2.23 2.594-2.75 3.565-2.502 4.69.54 2.455 3.247 3.418 5.341 1.9 2.561-1.857 6.635-7.26 8.955-11.878 1.853-3.687 1.713-5.897-.438-6.918-1.056-.501-1.768-.505-2.763-.014m-89.065 4.4c-1.334.68-1.835 1.562-1.8 3.166.07 3.193 4.497 12.59 6.655 14.127 2.073 1.476 4.962.362 5.422-2.09.15-.806-.068-1.374-2.129-5.535-1.264-2.55-2.588-5.423-2.944-6.384-.735-1.987-1.323-2.835-2.32-3.35-.917-.476-1.866-.454-2.884.065m103.616 1.259c-.614.374-1.184 1.316-2.827 4.667-2.286 4.665-3.863 7.28-6.472 10.736-1.98 2.623-2.445 3.676-2.167 4.91.53 2.353 3.39 3.233 5.435 1.673 1.957-1.493 6.082-7.487 8.502-12.353 2.863-5.76 3.18-7.75 1.479-9.308-.728-.667-1.056-.796-2.024-.795-.715 0-1.45.18-1.926.47M22.3 102.867c-1.498.742-2.116 2.13-1.736 3.904.358 1.667 1.713 5.03 3.346 8.302 2.42 4.85 3.606 6.184 5.495 6.184 1.852 0 3.304-1.3 3.478-3.112.106-1.102-.025-1.462-1.825-5.04-1.066-2.119-2.401-4.944-2.967-6.278-1.243-2.932-1.68-3.58-2.76-4.093-1.106-.525-1.761-.496-3.031.133m131.677 2.525c-.472.397-1.308 1.796-2.291 3.837-.852 1.767-2.234 4.346-3.072 5.734-2.058 3.407-2.492 4.433-2.283 5.396.415 1.919 2.316 3.111 4.164 2.613 1.806-.486 3.993-3.577 7.15-10.108 2.061-4.265 2.15-6.01.384-7.497-1.031-.867-3.005-.856-4.052.025m-49.372.971c-.8.339-2.69 1.101-4.2 1.694-3.653 1.435-4.034 1.65-4.629 2.613-.635 1.028-.648 2.23-.033 3.239 1.042 1.708 3.123 1.964 6.573.808 5.18-1.736 7.745-3.643 7.745-5.76 0-1.621-1.634-3.228-3.27-3.215-.402.003-1.386.282-2.186.621m-96.29 8.07c-.948.579-1.565 1.529-1.565 2.41 0 1.973 8.014 15.57 9.176 15.57.691 0 2.524-1.045 3.014-1.72.25-.344.514-1.058.585-1.585.11-.828-.056-1.303-1.231-3.495a375.125 375.125 0 0 1-3.203-6.175c-1.014-2-2.077-3.894-2.364-4.206-1.18-1.29-3.051-1.628-4.411-.799m41.515-.202c-1.324.396-2.339 1.76-2.339 3.143 0 1.718 1.58 3.657 5.41 6.636a52.65 52.65 0 0 0 12.763 7.307c3.12 1.251 5.989 2.066 7.276 2.065 1.185 0 2.44-.682 3.124-1.697 1.076-1.596.373-3.873-1.484-4.808-.293-.147-1.952-.772-3.686-1.388-5.905-2.097-10.6-4.736-15.529-8.73-2.334-1.893-3.82-2.779-4.6-2.746-.133.005-.554.103-.935.218m72.817 5.076c-.346.105-1.846.913-3.333 1.795a108.371 108.371 0 0 1-5.573 3.044c-3.448 1.728-4.408 2.651-4.408 4.238 0 1.293.77 2.529 1.945 3.119 1.581.794 2.706.546 6.764-1.493 3.292-1.655 6.5-3.668 7.602-4.773 2.02-2.024 1.588-4.974-.867-5.904-.775-.294-1.229-.3-2.13-.026m-87.645 4.85c-1.046.436-1.884 1.638-2.002 2.875-.15 1.565.315 2.515 2.268 4.625 3.055 3.3 9.943 8.832 13.072 10.501 3.147 1.678 5.941.401 5.94-2.713-.002-1.698-.578-2.369-4.121-4.795-2.776-1.901-6.012-4.553-9.12-7.475-1.547-1.454-3.048-2.777-3.334-2.939-.595-.336-1.987-.377-2.703-.079m104.293 4.31c-.633.16-1.396.688-5.538 3.824-1.937 1.467-4.73 3.377-6.206 4.244-6.07 3.566-6.61 4.044-6.637 5.88-.03 2.014 1.494 3.578 3.487 3.578 2.963 0 17.188-9.73 18.655-12.76.908-1.876.187-3.792-1.713-4.552-1.001-.4-1.225-.424-2.048-.215m-41.724.357c-.8.124-4.238.255-7.64.29-3.733.04-6.432.17-6.811.328-.346.144-.93.621-1.3 1.06-.6.713-.66.945-.57 2.194.175 2.413 1.437 3.233 5.595 3.633 4.713.454 13.26-.143 15.51-1.083.44-.184 1.154-.737 1.586-1.228.647-.738.784-1.093.783-2.037-.001-1.366-.64-2.537-1.674-3.072-.811-.42-3.105-.455-5.48-.085m-76.634 6.84c-.4.177-.936.555-1.192.841-.416.468-.429.587-.121 1.167.189.356 2.055 2.391 4.148 4.524 3.709 3.78 3.818 3.868 4.365 3.514 1.263-.818 1.764-2.934 1.03-4.353-.541-1.047-4.11-4.84-5.161-5.486-.998-.613-1.996-.68-3.069-.207m44.333 9.107c-2.433 1.484-2.158 4.67.53 6.12 2.51 1.353 9.785 3.108 15.038 3.627 2.769.274 2.966.263 4.056-.221 1.568-.697 2.185-1.713 2.061-3.394-.154-2.08-1.661-3.232-4.662-3.56-2.852-.313-7.088-1.137-10.713-2.084-4.146-1.084-5.2-1.165-6.31-.488m43.215.385c-1.682.493-6.597 1.458-9.216 1.809-3.443.461-4.845 1.313-5.307 3.222-.436 1.805 1.087 3.881 3.066 4.178 1.869.28 8.932-.93 13.75-2.358 3.039-.9 4.48-2.945 3.575-5.072-.622-1.46-1.445-2.002-3.148-2.072-.829-.035-2.053.097-2.72.293m-74.33 1.98c-.561.205-1.466 1.093-1.834 1.8-.33.634-.319.646 2.388 2.586 5.147 3.69 14.4 8.807 15.3 8.462.51-.196.739-1.667.413-2.654-.377-1.142-1.377-2.01-4.787-4.153-1.622-1.02-3.632-2.357-4.467-2.972-3.806-2.801-4.575-3.241-5.635-3.221-.558.01-1.179.079-1.379.152"/></svg>